<?xml version="1.0" encoding="utf-8"?>
<!-- Generator: Adobe Illustrator 21.1.0, SVG Export Plug-In . SVG Version: 6.00 Build 0)  -->
<!DOCTYPE svg PUBLIC "-//W3C//DTD SVG 1.1//EN" "http://www.w3.org/Graphics/SVG/1.1/DTD/svg11.dtd">
<svg version="1.1" id="placeholder" xmlns="http://www.w3.org/2000/svg" xmlns:xlink="http://www.w3.org/1999/xlink" x="0px"
	 y="0px" width="150px" height="600px" viewBox="0 0 150 600" style="enable-background:new 0 0 150 600;" xml:space="preserve" preserveAspectRatio="none">
<style type="text/css">
	.st0{fill:#656668;}
	.st1{opacity:0.3;}
</style>
<g id="avatar_full_body">
	<rect y="450" class="st0" width="150" height="150"/>
	<g class="st1">
		<path d="M75,501.2c3.3,0,6.5-0.2,8.8-0.6c2.4-0.4,4.9-1.1,4.9-3.1V475c0-0.9,0-3.8-13.8-3.8c-3.3,0-6.5,0.2-8.8,0.6
			c-2.4,0.4-4.9,1.1-4.9,3.1v22.5C61.2,498.4,61.2,501.2,75,501.2z M64.6,475.7c1.2-0.5,4.8-1.1,10.4-1.1s9.2,0.6,10.4,1.1v21.1
			c-1.2,0.5-4.8,1.1-10.4,1.1s-9.2-0.6-10.4-1.1V475.7z"/>
		<path d="M109.1,539.4c-0.4-1.2-1.2-2.2-2.1-2.9c0.5-0.4,0.6-1.1,0.4-1.8L99,511.6c-1.6-4.3-5.5-7.3-10-7.6
			c-3.4-0.3-8.6-0.6-13.9-0.6s-10.5,0.3-13.9,0.6c-4.5,0.4-8.5,3.4-10,7.6l-8.4,23.1c-0.2,0.6,0,1.3,0.4,1.8c-1,0.8-1.7,1.8-2.1,2.9
			c-0.6,1.7-0.5,3.5,0.2,5.1s2.1,2.8,3.8,3.4c0.2,0.1,0.4,0.1,0.6,0.1c0.7,0,1.3-0.4,1.6-1.1c0.3-0.9-0.1-1.8-1-2.1
			c-0.8-0.3-1.5-0.9-1.9-1.7s-0.4-1.7-0.1-2.5c0.3-0.8,0.9-1.5,1.7-1.9s1.7-0.4,2.5-0.1c1.7,0.6,2.6,2.5,2,4.3
			c-0.3,0.9,0.1,1.8,1,2.1s1.8-0.1,2.1-1c0.4-1.2,0.5-2.4,0.3-3.6c0.6,0,1.1-0.4,1.4-0.9l3.2-6.1v41.2c0,2.3,1.9,4.2,4.2,4.2H70
			c2.3,0,4.2-1.9,4.2-4.2v-29.2h1.7v29.2c0,2.3,1.9,4.2,4.2,4.2h7.5c2.3,0,4.2-1.9,4.2-4.2v-41.2l3.2,6.1c0.3,0.5,0.8,0.8,1.4,0.9
			c-0.2,1.2-0.2,2.4,0.3,3.6c0.3,0.9,1.3,1.3,2.1,1c0.9-0.3,1.3-1.3,1-2.1c-0.6-1.7,0.3-3.6,2-4.3c1.7-0.6,3.6,0.3,4.3,2
			c0.3,0.8,0.3,1.7-0.1,2.5s-1,1.4-1.9,1.7s-1.3,1.3-1,2.1c0.2,0.7,0.9,1.1,1.6,1.1c0.2,0,0.4,0,0.6-0.1c1.7-0.6,3-1.8,3.8-3.4
			C109.6,542.8,109.7,541,109.1,539.4z M91.7,526.3v-10.4c0-0.9-0.7-1.7-1.7-1.7s-1.7,0.7-1.7,1.7v58.8c0,0.5-0.4,0.8-0.8,0.8H80
			c-0.5,0-0.8-0.4-0.8-0.8v-29.2c0-1.8-1.5-3.3-3.3-3.3h-1.7c-1.8,0-3.3,1.5-3.3,3.3v29.2c0,0.5-0.4,0.8-0.8,0.8h-7.5
			c-0.5,0-0.8-0.4-0.8-0.8v-58.8c0-0.9-0.7-1.7-1.7-1.7s-1.7,0.7-1.7,1.7v10.4l-5.5,10.3l-3.3-1.2l0,0l0,0l-3.1-1.1l7.8-21.5
			c1.1-3,3.9-5.2,7.2-5.5c3.4-0.3,8.4-0.6,13.7-0.6c5.2,0,10.3,0.3,13.7,0.6c3.2,0.3,6,2.4,7.2,5.5l7.8,21.5l-3.1,1.1l0,0l0,0
			l-3.3,1.2L91.7,526.3z"/>
	</g>
</g>
<g id="avatar_portrait">
	<rect y="300" class="st0" width="150" height="150"/>
	<g class="st1">
		<path d="M63.5,374.7c3,0.5,7.1,0.8,11.3,0.8c4.3,0,8.3-0.3,11.3-0.8c2.9-0.5,6-1.3,6-3.6V342c0-2.2-3-3-6-3.6
			c-3-0.5-7.1-0.8-11.3-0.8c-4.3,0-8.3,0.3-11.3,0.8c-2.9,0.5-6,1.3-6,3.6v29.1C57.5,373.4,60.5,374.2,63.5,374.7z M60.8,342.6
			c1.3-0.6,6.1-1.6,14-1.6s12.6,1,14,1.6v28c-1.3,0.6-6.1,1.6-14,1.6s-12.6-1-14-1.6C60.8,370.6,60.8,342.6,60.8,342.6z"/>
		<path d="M112.1,407.7l0.1-0.1c0,0,0-0.1,0.1-0.1c0,0,0-0.1,0.1-0.1c0,0,0-0.1,0-0.2s0-0.1,0-0.2s0-0.1,0-0.2s0-0.1,0-0.2v-0.1
			c0-0.1,0-0.1,0-0.2l0,0v-0.1v-0.1l-6.8-16.5c-2-5.3-6.9-9.1-12.5-9.5c-6.4-0.5-12.5-0.8-18-0.8s-11.6,0.3-18,0.8
			c-5.7,0.5-10.6,4.2-12.5,9.5l-7,16.4v0.1v0.1l0,0c0,0.1,0,0.1,0,0.2v0.1c0,0.1,0,0.1,0,0.2s0,0.1,0,0.2s0,0.1,0,0.2s0,0.1,0,0.2
			s0,0.1,0.1,0.1c0,0,0,0.1,0.1,0.1l0.1,0.1l0.1,0.1l0.1,0.1l0.1,0.1l0.1,0.1c0.1,0,0.1,0.1,0.2,0.1l0,0h0.1h0.1
			c0.2,0,16.7,4.2,36.2,4.2s36.1-4.2,36.2-4.2h0.1h0.1l0,0c0.1,0,0.1-0.1,0.2-0.1l0.1-0.1l0.1-0.1l0.1-0.1
			C112.1,407.8,112.1,407.7,112.1,407.7z M57.2,408.1V395c0-0.9-0.7-1.7-1.7-1.7s-1.7,0.7-1.7,1.7v12.7c-5.7-0.8-10.1-1.7-12.4-2.2
			l6.1-14.7c0,0,0,0,0-0.1c1.5-4.1,5.3-7,9.7-7.4c6.2-0.5,12.4-0.8,17.7-0.8s11.5,0.3,17.7,0.8c4.4,0.4,8.2,3.3,9.7,7.4
			c0,0,0,0,0,0.1l6.1,14.7c-2.3,0.5-6.7,1.4-12.4,2.2V395c0-0.9-0.7-1.7-1.7-1.7s-1.7,0.7-1.7,1.7v13.1c-5.3,0.6-11.3,1.1-17.8,1.1
			S62.5,408.7,57.2,408.1z"/>
	</g>
</g>
<g id="image">
	<g>
		<rect y="150" class="st0" width="150" height="150"/>
	</g>
	<g class="st1">
		<path d="M110.8,195.8H39.2c-0.9,0-1.7,0.7-1.7,1.7v55c0,0.9,0.7,1.7,1.7,1.7h71.7c0.9,0,1.7-0.7,1.7-1.7v-55
			C112.5,196.6,111.8,195.8,110.8,195.8z M109.2,250.8H40.8v-51.7h68.3L109.2,250.8L109.2,250.8z"/>
		<path d="M58.5,223.5c4.4,0,7.9-3.6,7.9-7.9s-3.6-7.9-7.9-7.9s-7.9,3.6-7.9,7.9S54.1,223.5,58.5,223.5z M58.5,211
			c2.5,0,4.6,2.1,4.6,4.6s-2.1,4.6-4.6,4.6s-4.6-2.1-4.6-4.6S55.9,211,58.5,211z"/>
		<path d="M65.8,224.9L57.2,240c-0.3,0.5-0.3,1.1,0,1.7c0.3,0.5,0.8,0.8,1.4,0.8h39.1c0.6,0,1.1-0.3,1.4-0.8s0.3-1.1,0-1.7
			l-7.2-12.5l0,0l-7-12.5c-0.3-0.5-0.8-0.8-1.4-0.8l0,0c-0.6,0-1.1,0.3-1.4,0.8l-9.5,16.5l-3.8-6.6c-0.3-0.5-0.8-0.8-1.4-0.8l0,0
			C66.6,224.1,66.1,224.4,65.8,224.9z M67.2,229.1l3.8,6.6c0.3,0.5,0.8,0.8,1.4,0.8l0,0c0.6,0,1.1-0.3,1.4-0.8l9.5-16.5l5.7,10
			l5.7,10H61.5L67.2,229.1z"/>
	</g>
</g>
<g id="game">
	<rect class="st0" width="150" height="150"/>
	<g class="st1">
		<path d="M111.8,60.9l-15-9.5c-0.3-0.1-0.7-0.2-1-0.2H55c-0.3,0-0.6,0.1-0.9,0.2l-15.8,9.5c-0.5,0.3-0.8,0.8-0.8,1.4v34.9
			c0,0.9,0.8,1.7,1.7,1.7h11.7c0.2,0,0.4,0,0.6-0.1L68,92.2c0.2-0.1,0.4-0.1,0.6-0.1h13c0.2,0,0.4,0,0.6,0.1l16.5,6.6
			c0.2,0.1,0.4,0.1,0.6,0.1H111c0.9,0,1.7-0.8,1.7-1.7V62.3C112.5,61.7,112.3,61.2,111.8,60.9z M109.1,95.6h-9.7l-16.2-6.5
			c-0.6-0.2-1.2-0.4-1.9-0.4h-13c-0.6,0-1.2,0.1-1.9,0.4l-16.2,6.5h-9.6V63.3l14.6-8.8h39.9l13.8,8.8v32.3H109.1z"/>
		<path d="M64.8,73.4h-5.2v-5.2c0-0.9-0.7-1.7-1.7-1.7s-1.7,0.7-1.7,1.7v5.2H51c-0.9,0-1.7,0.7-1.7,1.7s0.7,1.7,1.7,1.7h5.2V82
			c0,0.9,0.7,1.7,1.7,1.7s1.7-0.7,1.7-1.7v-5.2h5.2c0.9,0,1.7-0.7,1.7-1.7S65.7,73.4,64.8,73.4z"/>
		<circle cx="87.9" cy="70.9" r="4.2"/>
		<circle cx="96.2" cy="79.2" r="4.2"/>
	</g>
</g>
</svg>
