<svg width="96" height="192" viewBox="0 0 96 192" fill="none" xmlns="http://www.w3.org/2000/svg">
<path fill-rule="evenodd" clip-rule="evenodd" d="M24.25 90.4266C24.25 90.4266 24.854 85.8166 28.884 86.3286C32.915 86.8416 38.133 88.7186 38.133 88.7186L34.626 93.3296L24.25 90.4266Z" fill="#BCBDBD"/>
<path fill-rule="evenodd" clip-rule="evenodd" d="M24.25 90.4266C24.25 90.4266 24.854 85.8166 28.884 86.3286C32.915 86.8416 38.133 88.7186 38.133 88.7186L34.626 93.3296L24.25 90.4266Z" stroke="#767879" stroke-linejoin="round"/>
<path fill-rule="evenodd" clip-rule="evenodd" d="M32.6053 61.826L28.8833 86.329L38.1323 88.719L43.0353 63.021L32.6053 61.826Z" fill="#BCBDBD"/>
<path fill-rule="evenodd" clip-rule="evenodd" d="M32.6053 61.826L28.8833 86.329L38.1323 88.719L43.0353 63.021L32.6053 61.826Z" stroke="#767879" stroke-linejoin="round"/>
<path fill-rule="evenodd" clip-rule="evenodd" d="M49.8644 63.0213L45.3544 90.9383L34.6264 93.3293C34.6264 93.3293 34.3534 88.8903 38.1334 88.7193L43.0354 63.0213H49.8644Z" fill="#767879"/>
<path fill-rule="evenodd" clip-rule="evenodd" d="M49.8644 63.0213L45.3544 90.9383L34.6264 93.3293C34.6264 93.3293 34.3534 88.8903 38.1334 88.7193L43.0354 63.0213H49.8644Z" stroke="#767879" stroke-linejoin="round"/>
<path fill-rule="evenodd" clip-rule="evenodd" d="M46.1775 88.4808C46.1775 88.4808 42.0305 90.0088 44.0955 93.5708L54.6905 94.4158L58.4485 87.1188L46.1775 88.4808Z" fill="#BCBDBD"/>
<path fill-rule="evenodd" clip-rule="evenodd" d="M46.1775 88.4808C46.1775 88.4808 42.0305 90.0088 44.0955 93.5708L54.6905 94.4158L58.4485 87.1188L46.1775 88.4808Z" stroke="#767879" stroke-linejoin="round"/>
<path fill-rule="evenodd" clip-rule="evenodd" d="M42.5342 63.1195L46.1782 88.4805L55.7412 89.3255L54.3302 66.0375L42.5342 63.1195Z" fill="#BCBDBD"/>
<path fill-rule="evenodd" clip-rule="evenodd" d="M42.5342 63.1195L46.1782 88.4805L55.7412 89.3255L54.3302 66.0375L42.5342 63.1195Z" stroke="#767879" stroke-linejoin="round"/>
<path fill-rule="evenodd" clip-rule="evenodd" d="M61.1105 59.9466L61.5825 89.3406L54.6905 94.4156C54.6905 94.4156 52.0605 90.3446 55.7415 89.3256L54.3305 66.0376L61.1105 59.9466Z" fill="#767879"/>
<path fill-rule="evenodd" clip-rule="evenodd" d="M61.1105 59.9466L61.5825 89.3406L54.6905 94.4156C54.6905 94.4156 52.0605 90.3446 55.7415 89.3256L54.3305 66.0376L61.1105 59.9466Z" stroke="#767879" stroke-linejoin="round"/>
<path fill-rule="evenodd" clip-rule="evenodd" d="M63.7586 16.0028L63.1216 11.2128L63.5506 10.7758L63.7486 10.7678C67.6486 10.6158 67.6486 9.2928 67.6486 8.8578C67.6486 7.5708 66.4696 7.3858 65.7676 7.3858C64.5076 7.3858 63.4196 7.9098 62.3436 9.0328L61.9706 9.4218L59.1226 6.2578L59.4156 5.9238C61.1376 3.9588 63.2386 3.0028 65.8396 3.0028C69.8196 3.0028 72.2916 5.1898 72.2916 8.7108C72.2916 11.6658 70.6216 13.5178 67.3266 14.2658L67.0516 16.0028H63.7586ZM62.9926 23.0028H67.9926V18.0028H62.9926V23.0028Z" fill="#BCBDBD"/>
<path fill-rule="evenodd" clip-rule="evenodd" d="M68.4931 17.5028H67.4931H63.4931H62.4931V18.5028V22.5028V23.5028H63.4931H67.4931H68.4931V22.5028V18.5028V17.5028ZM65.8401 2.5028C63.1251 2.5028 60.8371 3.5428 59.0401 5.5948L58.4551 6.2628L59.0491 6.9218L61.2391 9.3568L61.9591 10.1568L62.7041 9.3788C63.6811 8.3608 64.6531 7.8858 65.7671 7.8858C67.1481 7.8858 67.1481 8.5808 67.1481 8.8088C67.1481 9.7048 65.9981 10.1798 63.7291 10.2688L63.3331 10.2838L63.0551 10.5668L62.9351 10.6888L62.5941 11.0368L62.6581 11.5208L63.2051 15.6348L63.3211 16.5028H64.1961H66.6251H67.4791L67.6121 15.6598L67.7691 14.6728C71.8991 13.6068 72.7921 10.9008 72.7921 8.7608C72.7921 4.9398 70.0631 2.5028 65.8401 2.5028ZM63.4931 22.5028H67.4931V18.5028H63.4931V22.5028ZM65.8401 3.5028C69.3871 3.5028 71.7921 5.3768 71.7921 8.7108V8.7608C71.7921 11.9728 69.6001 13.3128 66.8881 13.8478L66.6251 15.5028H64.1961L63.6491 11.3888L63.7681 11.2678C66.8881 11.1458 68.1481 10.2698 68.1481 8.8578V8.8088C68.1481 7.6158 67.2681 6.8858 65.7671 6.8858C64.3401 6.8858 63.1251 7.4948 61.9821 8.6878L59.7921 6.2528C61.2211 4.6228 63.1251 3.5028 65.8401 3.5028Z" fill="#767879"/>
<path fill-rule="evenodd" clip-rule="evenodd" d="M64.498 53.3807C64.498 53.3807 70.49 53.3437 74.483 51.8797C78.477 50.4157 90.486 32.3677 90.486 32.3677L80.18 34.8377L64.498 53.3807Z" fill="#767879"/>
<path fill-rule="evenodd" clip-rule="evenodd" d="M64.498 53.3807C64.498 53.3807 70.49 53.3437 74.483 51.8797C78.477 50.4157 90.486 32.3677 90.486 32.3677L80.18 34.8377L64.498 53.3807Z" stroke="#767879" stroke-linejoin="round"/>
<path fill-rule="evenodd" clip-rule="evenodd" d="M13.338 26.9491C13.539 27.1941 13.662 27.5031 13.656 27.8451C13.642 28.6311 12.976 29.2691 12.169 29.2711C11.361 29.2731 10.719 28.6371 10.734 27.8511C10.739 27.5191 10.866 27.2171 11.067 26.9741L9.36202 25.9391C8.48702 26.6731 7.92302 27.7281 7.90102 28.9041C7.86102 31.1151 9.74102 32.9031 12.102 32.8971C14.462 32.8921 16.408 31.0961 16.449 28.8851C16.471 27.7171 15.952 26.6701 15.114 25.9401L13.338 26.9491Z" fill="#BDBEBE"/>
<path fill-rule="evenodd" clip-rule="evenodd" d="M13.338 26.9491C13.539 27.1941 13.662 27.5031 13.656 27.8451C13.642 28.6311 12.976 29.2691 12.169 29.2711C11.361 29.2731 10.719 28.6371 10.734 27.8511C10.739 27.5191 10.866 27.2171 11.067 26.9741L9.36202 25.9391C8.48702 26.6731 7.92302 27.7281 7.90102 28.9041C7.86102 31.1151 9.74102 32.9031 12.102 32.8971C14.462 32.8921 16.408 31.0961 16.449 28.8851C16.471 27.7171 15.952 26.6701 15.114 25.9401L13.338 26.9491Z" stroke="#767879" stroke-linejoin="round"/>
<path fill-rule="evenodd" clip-rule="evenodd" d="M10.2461 28.8988L18.7121 28.3548C18.7121 28.3548 25.8111 36.4948 30.2271 37.4608C34.6421 38.4268 23.6041 43.6698 23.6041 43.6698L12.7731 38.9788L10.2461 28.8988Z" fill="#767879"/>
<path fill-rule="evenodd" clip-rule="evenodd" d="M10.2461 28.8988L18.7121 28.3548C18.7121 28.3548 25.8111 36.4948 30.2271 37.4608C34.6421 38.4268 23.6041 43.6698 23.6041 43.6698L12.7731 38.9788L10.2461 28.8988Z" stroke="#767879" stroke-linejoin="round"/>
<path fill-rule="evenodd" clip-rule="evenodd" d="M24.8515 34.7972C24.8515 34.7972 23.7565 41.3632 20.9795 41.1102C18.7175 40.9052 10.2465 28.8992 10.2465 28.8992L6.49951 33.6532C6.49951 33.6532 13.2635 48.0552 21.3525 49.2992C25.7285 49.9732 28.4035 43.4382 28.0495 39.8482C27.7505 36.8022 24.8515 34.7972 24.8515 34.7972Z" fill="#BDBEBE"/>
<path fill-rule="evenodd" clip-rule="evenodd" d="M24.8515 34.7972C24.8515 34.7972 23.7565 41.3632 20.9795 41.1102C18.7175 40.9052 10.2465 28.8992 10.2465 28.8992L6.49951 33.6532C6.49951 33.6532 13.2635 48.0552 21.3525 49.2992C25.7285 49.9732 28.4035 43.4382 28.0495 39.8482C27.7505 36.8022 24.8515 34.7972 24.8515 34.7972Z" stroke="#767879" stroke-linejoin="round"/>
<path fill-rule="evenodd" clip-rule="evenodd" d="M54.4854 65.9627L30.7904 63.6667L22.9644 33.8797L54.4834 36.1547L54.4854 65.9627Z" fill="#BDBEBE"/>
<path fill-rule="evenodd" clip-rule="evenodd" d="M54.4854 65.9627L30.7904 63.6667L22.9644 33.8797L54.4834 36.1547L54.4854 65.9627Z" stroke="#767879" stroke-linejoin="round"/>
<path fill-rule="evenodd" clip-rule="evenodd" d="M65.6679 28.9832L54.4829 36.1542L54.4849 65.9622L62.7439 59.9992L65.6679 28.9832Z" fill="#767879"/>
<path fill-rule="evenodd" clip-rule="evenodd" d="M65.6679 28.9832L54.4829 36.1542L54.4849 65.9622L62.7439 59.9992L65.6679 28.9832Z" stroke="#767879" stroke-linejoin="round"/>
<path fill-rule="evenodd" clip-rule="evenodd" d="M63.6192 32.6668L56.4092 37.3258C56.4092 37.3258 60.0472 47.4768 62.9982 47.4768C65.9482 47.4768 70.4522 39.5568 70.4522 39.5568L63.6192 32.6668Z" fill="#BDBEBE"/>
<path fill-rule="evenodd" clip-rule="evenodd" d="M63.6192 32.6668L56.4092 37.3258C56.4092 37.3258 60.0472 47.4768 62.9982 47.4768C65.9482 47.4768 70.4522 39.5568 70.4522 39.5568L63.6192 32.6668Z" stroke="#767879" stroke-linejoin="round"/>
<path fill-rule="evenodd" clip-rule="evenodd" d="M56.4092 37.326C56.4092 37.326 61.1382 43.176 63.0052 43.3C64.8722 43.425 70.8462 30.481 70.8462 30.481L80.1802 34.837C80.1802 34.837 69.4762 53.879 64.4982 53.381C59.5202 52.883 56.5332 48.527 56.5332 48.527L56.4092 37.326Z" fill="#BDBEBE"/>
<path fill-rule="evenodd" clip-rule="evenodd" d="M56.4092 37.326C56.4092 37.326 61.1382 43.176 63.0052 43.3C64.8722 43.425 70.8462 30.481 70.8462 30.481L80.1802 34.837C80.1802 34.837 69.4762 53.879 64.4982 53.381C59.5202 52.883 56.5332 48.527 56.5332 48.527L56.4092 37.326Z" stroke="#767879" stroke-linejoin="round"/>
<path fill-rule="evenodd" clip-rule="evenodd" d="M22.9648 33.8797L33.3188 25.8517L65.6678 28.9837L54.4838 36.1547L22.9648 33.8797Z" fill="#BDBEBE"/>
<path fill-rule="evenodd" clip-rule="evenodd" d="M22.9648 33.8797L33.3188 25.8517L65.6678 28.9837L54.4838 36.1547L22.9648 33.8797Z" stroke="#767879" stroke-linejoin="round"/>
<path fill-rule="evenodd" clip-rule="evenodd" d="M45.5401 26.3602C45.5401 26.3602 32.3961 31.2182 34.2141 32.9342C36.0311 34.6512 64.9211 29.0862 64.9211 29.0862L45.5401 26.3602Z" fill="#767879"/>
<path fill-rule="evenodd" clip-rule="evenodd" d="M44.1561 30.5599L39.4311 31.4229C35.4411 32.5179 28.0851 29.6029 27.0261 23.8099L25.6061 16.0339C24.5481 10.2409 28.3851 4.6869 34.1781 3.6289L38.9031 2.7659C44.6961 1.7069 50.2511 5.5459 51.3091 11.3389L52.7291 19.1139C53.7881 24.9079 47.4431 29.8509 44.1561 30.5599Z" fill="#BDBEBE"/>
<path fill-rule="evenodd" clip-rule="evenodd" d="M44.1561 30.5599L39.4311 31.4229C35.4411 32.5179 28.0851 29.6029 27.0261 23.8099L25.6061 16.0339C24.5481 10.2409 28.3851 4.6869 34.1781 3.6289L38.9031 2.7659C44.6961 1.7069 50.2511 5.5459 51.3091 11.3389L52.7291 19.1139C53.7881 24.9079 47.4431 29.8509 44.1561 30.5599Z" stroke="#767879" stroke-linejoin="round"/>
<path fill-rule="evenodd" clip-rule="evenodd" d="M40.749 12.4393C42.287 11.4253 43.049 15.1473 41.791 15.8163C40.533 16.4843 39.488 13.2713 40.749 12.4393Z" fill="#767879"/>
<path fill-rule="evenodd" clip-rule="evenodd" d="M34.3544 13.7049C35.8914 12.6909 36.6534 16.4129 35.3964 17.0819C34.1384 17.7499 33.0924 14.5369 34.3544 13.7049Z" fill="#767879"/>
<path d="M44.1837 23.6981C44.1837 23.6981 41.8127 20.1411 39.2787 20.8961C36.7257 21.6561 36.0127 24.9351 36.0127 24.9351" stroke="#767879" stroke-linecap="round"/>
<path fill-rule="evenodd" clip-rule="evenodd" d="M70.8457 30.4813L76.7007 28.8723L79.7847 31.3233L84.6457 29.9273L90.4867 32.3673L80.1797 34.8373L70.8457 30.4813Z" fill="#BDBEBE"/>
<path fill-rule="evenodd" clip-rule="evenodd" d="M70.8457 30.4813L76.7007 28.8723L79.7847 31.3233L84.6457 29.9273L90.4867 32.3673L80.1797 34.8373L70.8457 30.4813Z" stroke="#767879" stroke-linejoin="round"/>
<path fill-rule="evenodd" clip-rule="evenodd" d="M84.2373 25.1859L81.8733 27.0049C82.1653 27.3299 82.3523 27.7629 82.3663 28.2689C82.3963 29.4319 81.5273 30.4979 80.4243 30.6509C79.3213 30.8039 78.4013 29.9849 78.3713 28.8219C78.3583 28.3309 78.5133 27.8609 78.7723 27.4649L76.3763 26.2529C75.4463 27.2619 74.8163 28.5439 74.6313 29.9169L79.6553 32.5149L85.9593 31.3169C86.1613 30.6649 86.2683 29.9819 86.2503 29.2849C86.2053 27.5559 85.4293 26.1069 84.2373 25.1859Z" fill="#BDBEBE"/>
<path fill-rule="evenodd" clip-rule="evenodd" d="M84.2373 25.1859L81.8733 27.0049C82.1653 27.3299 82.3523 27.7629 82.3663 28.2689C82.3963 29.4319 81.5273 30.4979 80.4243 30.6509C79.3213 30.8039 78.4013 29.9849 78.3713 28.8219C78.3583 28.3309 78.5133 27.8609 78.7723 27.4649L76.3763 26.2529C75.4463 27.2619 74.8163 28.5439 74.6313 29.9169L79.6553 32.5149L85.9593 31.3169C86.1613 30.6649 86.2683 29.9819 86.2503 29.2849C86.2053 27.5559 85.4293 26.1069 84.2373 25.1859Z" stroke="#767879" stroke-linejoin="round"/>
<path fill-rule="evenodd" clip-rule="evenodd" d="M44.256 2.8529C44.256 2.8529 47.624 5.1819 48.595 9.2019C49.566 13.2229 51.745 20.6689 49.074 25.3899C46.821 29.3709 35.382 30.8499 31.915 29.8789C31.915 29.8789 33.747 32.4769 41.482 30.8499C48.204 29.4359 52.332 26.4299 52.471 20.6059C52.61 14.7829 51.465 9.3589 48.83 6.1709C46.196 2.9819 44.256 2.8529 44.256 2.8529Z" fill="#767879"/>
<path fill-rule="evenodd" clip-rule="evenodd" d="M37.3378 150.871L33.0898 144.331L52.5878 151.712L57.4038 158.582L37.3378 150.871Z" fill="#767879"/>
<path fill-rule="evenodd" clip-rule="evenodd" d="M37.3378 150.871L33.0898 144.331L52.5878 151.712L57.4038 158.582L37.3378 150.871Z" stroke="#767879" stroke-linejoin="round"/>
<path fill-rule="evenodd" clip-rule="evenodd" d="M90 187C90 188.657 77.912 190 63 190C48.089 190 36 188.657 36 187C36 185.343 48.089 184 63 184C77.912 184 90 185.343 90 187Z" fill="#767879"/>
<path fill-rule="evenodd" clip-rule="evenodd" d="M39.6239 101.142C39.5849 101.404 39.4539 101.672 39.2209 101.901C38.6849 102.428 37.8429 102.545 37.3399 102.163C36.8379 101.782 36.8649 101.045 37.4019 100.518C37.6289 100.296 37.9099 100.151 38.1979 100.081L37.8349 98.5704C36.7989 98.6524 35.7399 99.1014 34.9369 99.8894C33.4289 101.37 33.3959 103.476 34.8649 104.593C36.3339 105.71 38.7479 105.414 40.2569 103.933C41.0539 103.15 41.4349 102.194 41.4039 101.301L39.6239 101.142Z" fill="#BDBEBE"/>
<path fill-rule="evenodd" clip-rule="evenodd" d="M39.6239 101.142C39.5849 101.404 39.4539 101.672 39.2209 101.901C38.6849 102.428 37.8429 102.545 37.3399 102.163C36.8379 101.782 36.8649 101.045 37.4019 100.518C37.6289 100.296 37.9099 100.151 38.1979 100.081L37.8349 98.5704C36.7989 98.6524 35.7399 99.1014 34.9369 99.8894C33.4289 101.37 33.3959 103.476 34.8649 104.593C36.3339 105.71 38.7479 105.414 40.2569 103.933C41.0539 103.15 41.4349 102.194 41.4039 101.301L39.6239 101.142Z" stroke="#767879" stroke-linejoin="round"/>
<path fill-rule="evenodd" clip-rule="evenodd" d="M41.9637 106.853L39.1877 103.229L34.0907 107.379L34.0747 122.895L41.9037 124.017C41.9037 124.017 38.8447 116.93 39.4137 113.638C40.0307 110.075 41.9637 106.853 41.9637 106.853Z" fill="#767879"/>
<path fill-rule="evenodd" clip-rule="evenodd" d="M41.9637 106.853L39.1877 103.229L34.0907 107.379L34.0747 122.895L41.9037 124.017C41.9037 124.017 38.8447 116.93 39.4137 113.638C40.0307 110.075 41.9637 106.853 41.9637 106.853Z" stroke="#767879" stroke-linejoin="round"/>
<path fill-rule="evenodd" clip-rule="evenodd" d="M31.6534 99.9407C31.6534 99.9407 35.0854 100.841 39.1874 103.23C36.9364 107.261 33.2744 115.463 38.4204 121.772L28.6214 124.566C28.6214 124.566 21.6554 112.258 31.6534 99.9407Z" fill="#BDBEBE"/>
<path fill-rule="evenodd" clip-rule="evenodd" d="M31.6534 99.9407C31.6534 99.9407 35.0854 100.841 39.1874 103.23C36.9364 107.261 33.2744 115.463 38.4204 121.772L28.6214 124.566C28.6214 124.566 21.6554 112.258 31.6534 99.9407Z" stroke="#767879" stroke-linejoin="round"/>
<path fill-rule="evenodd" clip-rule="evenodd" d="M32.7176 126.826L28.6206 124.566L38.4196 121.771L41.9046 124.016L32.7176 126.826Z" fill="#767879"/>
<path fill-rule="evenodd" clip-rule="evenodd" d="M32.7176 126.826L28.6206 124.566L38.4196 121.771L41.9046 124.016L32.7176 126.826Z" stroke="#767879" stroke-linejoin="round"/>
<path fill-rule="evenodd" clip-rule="evenodd" d="M55.5753 126.556L52.4353 125.045C48.5873 123.192 46.9683 118.57 48.8203 114.72L51.3073 109.554C53.1603 105.704 57.7833 104.086 61.6323 105.938L64.7713 107.45C68.6213 109.302 70.2393 113.925 68.3873 117.774L65.9003 122.941C64.0473 126.79 59.4253 128.409 55.5753 126.556Z" fill="#BDBEBE"/>
<path fill-rule="evenodd" clip-rule="evenodd" d="M55.5753 126.556L52.4353 125.045C48.5873 123.192 46.9683 118.57 48.8203 114.72L51.3073 109.554C53.1603 105.704 57.7833 104.086 61.6323 105.938L64.7713 107.45C68.6213 109.302 70.2393 113.925 68.3873 117.774L65.9003 122.941C64.0473 126.79 59.4253 128.409 55.5753 126.556Z" stroke="#767879" stroke-linejoin="round"/>
<path fill-rule="evenodd" clip-rule="evenodd" d="M84.4161 117.439C84.6121 117.657 84.7391 117.949 84.7481 118.29C84.7691 119.074 84.1831 119.792 83.4391 119.895C82.6961 119.998 82.0771 119.446 82.0571 118.663C82.0481 118.332 82.1521 118.015 82.3261 117.749L80.7121 116.932C79.9371 117.772 79.4631 118.893 79.4941 120.065C79.5521 122.269 81.3601 123.811 83.5341 123.51C85.7071 123.209 87.4231 121.178 87.3641 118.975C87.3341 117.81 86.8121 116.834 86.0081 116.213L84.4161 117.439Z" fill="#BDBEBE"/>
<path fill-rule="evenodd" clip-rule="evenodd" d="M84.4161 117.439C84.6121 117.657 84.7391 117.949 84.7481 118.29C84.7691 119.074 84.1831 119.792 83.4391 119.895C82.6961 119.998 82.0771 119.446 82.0571 118.663C82.0481 118.332 82.1521 118.015 82.3261 117.749L80.7121 116.932C79.9371 117.772 79.4631 118.893 79.4941 120.065C79.5521 122.269 81.3601 123.811 83.5341 123.51C85.7071 123.209 87.4231 121.178 87.3641 118.975C87.3341 117.81 86.8121 116.834 86.0081 116.213L84.4161 117.439Z" stroke="#767879" stroke-linejoin="round"/>
<path fill-rule="evenodd" clip-rule="evenodd" d="M88.9359 126.759L87.5909 122.003L70.3859 143.523L69.6729 148.656C69.6729 148.656 78.3439 144.251 82.9209 138.189C87.4989 132.127 88.9359 126.759 88.9359 126.759Z" fill="#767879"/>
<path fill-rule="evenodd" clip-rule="evenodd" d="M88.9359 126.759L87.5909 122.003L70.3859 143.523L69.6729 148.656C69.6729 148.656 78.3439 144.251 82.9209 138.189C87.4989 132.127 88.9359 126.759 88.9359 126.759Z" stroke="#767879" stroke-linejoin="round"/>
<path fill-rule="evenodd" clip-rule="evenodd" d="M56.6406 157.708C56.6406 157.708 54.2716 164.49 58.9116 170.586L56.2146 174.957L50.5916 173.884L46.9116 158.642L52.2556 145.73L56.6406 157.708Z" fill="#767879"/>
<path fill-rule="evenodd" clip-rule="evenodd" d="M56.6406 157.708C56.6406 157.708 54.2716 164.49 58.9116 170.586L56.2146 174.957L50.5916 173.884L46.9116 158.642L52.2556 145.73L56.6406 157.708Z" stroke="#767879" stroke-linejoin="round"/>
<path fill-rule="evenodd" clip-rule="evenodd" d="M46.8135 141.69C46.8135 141.69 34.4165 161.32 48.0765 174.985L55.1855 172.584C55.1855 172.584 48.8995 162.806 52.5875 151.712L46.8135 141.69Z" fill="#BDBEBE"/>
<path fill-rule="evenodd" clip-rule="evenodd" d="M46.8135 141.69C46.8135 141.69 34.4165 161.32 48.0765 174.985L55.1855 172.584C55.1855 172.584 48.8995 162.806 52.5875 151.712L46.8135 141.69Z" stroke="#767879" stroke-linejoin="round"/>
<path fill-rule="evenodd" clip-rule="evenodd" d="M47.8185 178.293C47.8185 178.293 45.3795 177.001 48.0765 174.985L55.1855 172.584C55.1855 172.584 54.7165 173.452 54.9785 174.147C55.2395 174.843 56.2145 174.957 56.2145 174.957L47.8185 178.293Z" fill="#BDBEBE"/>
<path fill-rule="evenodd" clip-rule="evenodd" d="M47.8185 178.293C47.8185 178.293 45.3795 177.001 48.0765 174.985L55.1855 172.584C55.1855 172.584 54.7165 173.452 54.9785 174.147C55.2395 174.843 56.2145 174.957 56.2145 174.957L47.8185 178.293Z" stroke="#767879" stroke-linejoin="round"/>
<path fill-rule="evenodd" clip-rule="evenodd" d="M52.5878 151.712L33.0898 144.332L38.4088 120.244L64.6598 129.479L52.5878 151.712Z" fill="#BDBEBE"/>
<path fill-rule="evenodd" clip-rule="evenodd" d="M52.5878 151.712L33.0898 144.332L38.4088 120.244L64.6598 129.479L52.5878 151.712Z" stroke="#767879" stroke-linejoin="round"/>
<path fill-rule="evenodd" clip-rule="evenodd" d="M67.2959 137.536L64.6599 129.479L52.5879 151.712L57.4039 158.583L67.2959 137.536Z" fill="#767879"/>
<path fill-rule="evenodd" clip-rule="evenodd" d="M67.2959 137.536L64.6599 129.479L52.5879 151.712L57.4039 158.583L67.2959 137.536Z" stroke="#767879" stroke-linejoin="round"/>
<path fill-rule="evenodd" clip-rule="evenodd" d="M63.7734 135.758C63.7734 135.758 75.7574 129.512 78.3994 118.948C78.3994 118.948 86.2554 120.35 87.5904 122.002C87.5904 122.002 85.9444 135.545 70.3854 143.523L63.7734 135.758Z" fill="#BDBEBE"/>
<path fill-rule="evenodd" clip-rule="evenodd" d="M63.7734 135.758C63.7734 135.758 75.7574 129.512 78.3994 118.948C78.3994 118.948 86.2554 120.35 87.5904 122.002C87.5904 122.002 85.9444 135.545 70.3854 143.523L63.7734 135.758Z" stroke="#767879" stroke-linejoin="round"/>
<path fill-rule="evenodd" clip-rule="evenodd" d="M63.1875 141.876L63.7735 135.758L70.3855 143.523L69.6725 148.656L63.1875 141.876Z" fill="#BDBEBE"/>
<path fill-rule="evenodd" clip-rule="evenodd" d="M63.1875 141.876L63.7735 135.758L70.3855 143.523L69.6725 148.656L63.1875 141.876Z" stroke="#767879" stroke-linejoin="round"/>
<path fill-rule="evenodd" clip-rule="evenodd" d="M56.5207 109.784C57.4567 110.139 55.8357 112.993 54.9687 112.59C54.1017 112.186 55.5847 109.428 56.5207 109.784Z" fill="#767879"/>
<path fill-rule="evenodd" clip-rule="evenodd" d="M60.9006 111.269C62.0046 111.519 60.5486 114.284 59.7216 113.979C58.8946 113.674 59.9956 111.063 60.9006 111.269Z" fill="#767879"/>
<path d="M52.8447 115.887C52.8447 115.887 52.9457 118.778 54.8007 119.065C56.6577 119.353 58.8147 117.867 58.8147 117.867" stroke="#767879" stroke-linecap="round"/>
<path fill-rule="evenodd" clip-rule="evenodd" d="M65.7724 108.17C65.7724 108.17 66.7224 110.072 66.5494 113.098C66.3764 116.123 63.4384 122.607 60.6714 123.99C57.9054 125.374 53.6684 125.028 51.2484 124.163C48.8284 123.299 58.8564 127.448 58.8564 127.448C58.8564 127.448 63.0914 127.967 65.9454 122.78C68.7974 117.593 69.9214 115.086 68.8844 112.233C67.8464 109.38 65.7724 108.17 65.7724 108.17Z" fill="#767879"/>
<path fill-rule="evenodd" clip-rule="evenodd" d="M38.3313 144.387L32.6633 141.183L24.1613 140.383L19.9613 147.824L17.6333 149.548L21.6383 156.588L22.8883 154.731C28.3203 148.953 32.2273 149.738 37.1723 153.106L43.2893 148.643L38.3313 144.387Z" fill="#767879"/>
<path fill-rule="evenodd" clip-rule="evenodd" d="M38.3313 144.387L32.6633 141.183L24.1613 140.383L19.9613 147.824L17.6333 149.548L21.6383 156.588L22.8883 154.731C28.3203 148.953 32.2273 149.738 37.1723 153.106L43.2893 148.643L38.3313 144.387Z" stroke="#767879" stroke-linejoin="round"/>
<path fill-rule="evenodd" clip-rule="evenodd" d="M8.07031 148.121C8.07031 148.121 8.11231 146.001 11.4943 146.283L20.3093 147.974L17.6333 149.548L8.07031 148.121Z" fill="#BDBEBE"/>
<path fill-rule="evenodd" clip-rule="evenodd" d="M8.07031 148.121C8.07031 148.121 8.11231 146.001 11.4943 146.283L20.3093 147.974L17.6333 149.548L8.07031 148.121Z" stroke="#767879" stroke-linejoin="round"/>
<path fill-rule="evenodd" clip-rule="evenodd" d="M11.4941 146.283C11.4941 146.283 17.5841 138.227 24.3901 138.436C29.8291 138.747 38.6091 141.467 42.8941 148.789C34.6701 139.175 29.3181 137.77 20.3091 147.973L11.4941 146.283Z" fill="#BDBEBE"/>
<path fill-rule="evenodd" clip-rule="evenodd" d="M11.4941 146.283C11.4941 146.283 17.5841 138.227 24.3901 138.436C29.8291 138.747 38.6091 141.467 42.8941 148.789C34.6701 139.175 29.3181 137.77 20.3091 147.973L11.4941 146.283Z" stroke="#767879" stroke-linejoin="round"/>
<path fill-rule="evenodd" clip-rule="evenodd" d="M21.6378 156.588L12.8698 155.377L8.0708 148.121L17.6328 149.548L21.6378 156.588Z" fill="#BDBEBE"/>
<path fill-rule="evenodd" clip-rule="evenodd" d="M21.6378 156.588L12.8698 155.377L8.0708 148.121L17.6328 149.548L21.6378 156.588Z" stroke="#767879" stroke-linejoin="round"/>
</svg>
